# xmcd
#
# Track frame offsets:
#	150
#	16800
#	30825
#	46587
#	61625
#	76822
#	88147
#	106522
#	126262
#	144225
#
# Disc length: 2076
#
# Revision: 3
# Processed by: cddbd v1.5.1PL0 Copyright (c) Steve Scherf et al.
# Submitted via: audiograbber 1.81.02
# Normalized: r2:DSETVAR1
#
DISCID=61081a0a
DTITLE=Various Artist - Hot Country
DYEAR=1900
DGENRE=
TTITLE0=Mark Collie - Even the man in the moon is crying
TTITLE1=Mark Chesnutt - Bubba shot the jukebox
TTITLE2=Marty Stuart - This one's gonna hurt you
TTITLE3=McBride and the ride\n - Sacred Ground
TTITLE4=Patty Loveless - Jealous Bone
TTITLE5=Kelly Willis - Heaven's just a sin away
TTITLE6=Lionel Cartwright - Leap of faith
TTITLE7=James House - Hard times for an honest man
TTITLE8=Nanci Griffith - Lone star state of mind
TTITLE9=Steve Earle - Guitar Town
EXTD=
EXTT0=\n
EXTT1=\n
EXTT2=\n
EXTT3=
EXTT4=\n
EXTT5=\n
EXTT6=\n
EXTT7=\n
EXTT8=\n
EXTT9=\n
PLAYORDER=
